<svg width="23" height="425" viewBox="0 0 23 425" fill="none" xmlns="http://www.w3.org/2000/svg">
<path fill-rule="evenodd" clip-rule="evenodd" d="M13.3117 239.492V29.5356L15.3117 28.1086V240.957L13.3117 239.492ZM9.31166 252.975V421C9.31166 422.105 10.2071 423 11.3117 423C12.4162 423 13.3117 422.105 13.3117 421V252.844L15.3117 251.442V421C15.3117 423.209 13.5208 425 11.3117 425C9.10252 425 7.31166 423.209 7.31166 421V251.545L9.31166 252.975ZM9.31166 239.604V28.7792L7.31166 27.3744V241.045L9.31166 239.604ZM15.3117 16.7655L13.3117 15.3282V4C13.3117 2.89543 12.4162 2 11.3117 2C10.2071 2 9.31166 2.89543 9.31166 3.99999V15.8536L7.31166 17.3211V3.99999C7.31166 1.79086 9.10252 0 11.3117 0C13.5208 0 15.3117 1.79086 15.3117 4V16.7655Z" fill="#646464"/>
<path d="M2.02508 22.3107L11.7105 15.3318L21.221 22.296L11.5148 29.0998L2.02508 22.3107Z" stroke="#646464" stroke-width="2"/>
<path d="M1.71439 246.313L11.3998 239.334L20.9103 246.298L11.2041 253.102L1.71439 246.313Z" stroke="#646464" stroke-width="2"/>
</svg>
